#!OML:ASF H:\ManfredETheater\Project 1\Capture day 1\Session 1\subject.ASF
:FULLY-SPECIFIED
:DEGREES
123
root -17.2375 16.1512 15.8528 -1.61105 -43.8409 -2.08061
lowerback 18.4712 0.473636 2.35883
upperback 3.17624 1.12674 1.7476
thorax -6.90894 0.471396 0.266856
lowerneck -17.6955 -3.99802 -4.75026
upperneck 14.0465 -4.74071 2.88753
head 7.4025 -2.2539 1.17246
rclavicle -1.44218e-013 1.59028e-014
rhumerus -49.7672 11.7526 -92.5885
rradius 103.305
rwrist -7.11143
rhand -28.217 14.9446
rfingers 7.12502
rthumb -1.5955 -15.0292
lclavicle -1.44218e-013 1.59028e-014
lhumerus -61.943 -13.3281 97.9422
lradius 105.483
lwrist 15.0443
lhand -14.1385 -10.7394
lfingers 7.12502
lthumb 11.9956 18.8968
rfemur -19.9939 -6.77269 29.9445
rtibia 78.5185
rfoot -3.24066 -14.905
rtoes -28.5325
lfemur -50.5919 -8.06384 -7.47683
ltibia 49.026
lfoot 9.2048 -10.6072
ltoes -20.8981
124
root -17.6 16.196 16.3057 -2.06944 -44.5305 -1.62465
lowerback 17.9643 0.679963 2.07756
upperback 3.24029 1.31244 1.56439
thorax -6.5661 0.570366 0.191507
lowerneck -17.7411 -3.97565 -4.68565
upperneck 14.362 -4.71817 2.80419
head 7.50963 -2.24748 1.13504
rclavicle 7.51406e-014 1.15295e-014
rhumerus -50.0712 12.2115 -92.5802
rradius 104.685
rwrist -7.77962
rhand -28.148 15.034
rfingers 7.12502
rthumb -1.52885 -14.9403
lclavicle 7.51406e-014 1.15295e-014
lhumerus -62.8434 -12.5685 97.4234
lradius 106.654
lwrist 14.9804
lhand -14.0759 -10.5861
lfingers 7.12502
lthumb 12.0559 19.0466
rfemur -20.0591 -6.12184 28.921
rtibia 80.6126
rfoot -0.914678 -13.0566
rtoes -25.168
lfemur -49.3429 -8.20698 -8.0641
ltibia 44.5024
lfoot 11.961 -9.63965
ltoes -21.4447
125
root -17.9634 16.2249 16.7613 -2.66467 -45.1988 -1.11813
lowerback 17.5212 0.839661 1.72394
upperback 3.29653 1.43282 1.41821
thorax -6.27024 0.638324 0.214389
lowerneck -17.7654 -3.88986 -4.58643
upperneck 14.7425 -4.60178 2.61834
head 7.62798 -2.20485 1.06948
rclavicle -2.48481e-014 -4.77083e-015
rhumerus -50.3578 12.5999 -92.51
rradius 105.767
rwrist -8.64265
rhand -28.0779 15.0716
rfingers 7.12502
rthumb -1.4612 -14.9031
lclavicle -2.48481e-014 -4.77083e-015
lhumerus -63.6903 -11.6169 96.9117
lradius 107.699
lwrist 14.6672
lhand -14.2306 -10.4921
lfingers 7.12502
lthumb 11.9067 19.1494
rfemur -20.2416 -5.59995 27.8593
rtibia 82.7768
rfoot 0.35378 -11.5829
rtoes -22.3747
lfemur -48.0385 -8.16588 -8.86434
ltibia 40.844
lfoot 14.376 -8.45999
ltoes -21.6387
126
root -18.3274 16.2373 17.2192 -3.38628 -45.8356 -0.618649
lowerback 17.1938 0.946426 1.35274
upperback 3.3463 1.4903 1.31637
thorax -6.04664 0.674613 0.308631
lowerneck -17.7721 -3.74792 -4.46559
upperneck 15.1791 -4.40212 2.35976
head 7.7575 -2.12935 0.986378
rclavicle 2.22639e-014 -8.34896e-015
rhumerus -50.627 12.8676 -92.3768
rradius 106.532
rwrist -9.44335
rhand -27.972 15.1187
rfingers 7.12502
rthumb -1.35886 -14.8567
lclavicle 2.22639e-014 -8.34896e-015
lhumerus -64.4822 -10.5494 96.4351
lradius 108.656
lwrist 14.2881
lhand -14.5543 -10.3993
lfingers 7.12502
lthumb 11.5946 19.2599
rfemur -20.4803 -5.2195 26.8028
rtibia 84.9414
rfoot 0.654869 -10.5335
rtoes -20.5619
lfemur -46.7156 -7.83962 -9.91881
ltibia 38.1905
lfoot 16.2944 -7.33891
ltoes -22.5593
127
root -18.6906 16.2314 17.6778 -4.15374 -46.4181 -0.248775
lowerback 17.0284 0.987244 1.05976
upperback 3.38412 1.48463 1.27715
thorax -5.92347 0.677344 0.436988
lowerneck -17.7483 -3.56027 -4.34154
upperneck 15.6414 -4.13401 2.06272
head 7.88838 -2.02623 0.89852
rclavicle 2.20651e-014 -3.69739e-014
rhumerus -50.8866 12.9744 -92.1792
rradius 106.978
rwrist -9.96176
rhand -27.8368 15.1822
rfingers 7.12502
rthumb -1.22832 -14.7941
lclavicle 2.20651e-014 -3.69739e-014
lhumerus -65.212 -9.44698 96.015
lradius 109.565
lwrist 14.0123
lhand -14.95 -10.2703
lfingers 7.12502
lthumb 11.213 19.4101
rfemur -20.7601 -4.98948 25.851
rtibia 87.0524
rfoot 0.217622 -9.91224
rtoes -19.6794
lfemur -45.4064 -7.15345 -11.1743
ltibia 36.6211
lfoot 17.4823 -6.49454
ltoes -22.4242
128
root -19.0519 16.2089 18.1347 -4.93919 -46.9302 -0.0496573
lowerback 17.0605 0.960273 0.881586
upperback 3.4116 1.41745 1.29897
thorax -5.91635 0.646996 0.575567
lowerneck -17.6886 -3.34199 -4.22051
upperneck 16.0906 -3.81939 1.74888
head 8.00872 -1.90423 0.811645
rclavicle 3.61788e-014 -1.59028e-014
rhumerus -51.145 12.884 -91.9214
rradius 107.115
rwrist -10.0647
rhand -27.6957 15.2675
rfingers 7.12502
rthumb -1.09198 -14.7095
lclavicle 3.61788e-014 -1.59028e-014
lhumerus -65.8594 -8.38868 95.6669
lradius 110.453
lwrist 13.9524
lhand -15.3496 -10.0807
lfingers 7.12502
lthumb 10.8276 19.6202
rfemur -21.0862 -4.91593 25.0326
rtibia 89.0522
rfoot -0.627408 -9.66677
rtoes -19.6429
lfemur -44.1336 -6.15863 -12.5384
ltibia 36.1395
lfoot 17.8011 -6.14851
ltoes -21.8549
